<mxfile host="65bd71144e">
    <diagram id="ROT-tgtEjaw9K6jMbLcx" name="Page-1">
        <mxGraphModel dx="2716" dy="2114" grid="1" gridSize="10" guides="1" tooltips="1" connect="1" arrows="1" fold="1" page="1" pageScale="1" pageWidth="827" pageHeight="1169" math="0" shadow="0">
            <root>
                <mxCell id="0"/>
                <mxCell id="1" parent="0"/>
                <mxCell id="4" value="" style="verticalLabelPosition=bottom;verticalAlign=top;html=1;shape=mxgraph.basic.rect;fillColor2=none;strokeWidth=1;size=20;indent=5;" parent="1" vertex="1">
                    <mxGeometry x="160" y="190" width="1020" height="880" as="geometry"/>
                </mxCell>
                <mxCell id="6" value="" style="verticalLabelPosition=bottom;verticalAlign=top;html=1;shape=mxgraph.basic.rect;fillColor2=none;strokeWidth=1;size=20;indent=5;" parent="1" vertex="1">
                    <mxGeometry x="720" y="420" width="430" height="460" as="geometry"/>
                </mxCell>
                <mxCell id="7" value="" style="verticalLabelPosition=bottom;verticalAlign=top;html=1;shape=mxgraph.basic.rect;fillColor2=none;strokeWidth=1;size=20;indent=5;" parent="1" vertex="1">
                    <mxGeometry x="190" y="423.18" width="450" height="460" as="geometry"/>
                </mxCell>
                <mxCell id="8" value="Subnet-B (10.0.2.0/24)" style="text;html=1;strokeColor=none;fillColor=none;align=center;verticalAlign=middle;whiteSpace=wrap;rounded=0;" parent="1" vertex="1">
                    <mxGeometry x="730" y="420" width="140" height="30" as="geometry"/>
                </mxCell>
                <mxCell id="30" style="edgeStyle=none;html=1;fontSize=14;" parent="1" source="9" target="7" edge="1">
                    <mxGeometry relative="1" as="geometry"/>
                </mxCell>
                <mxCell id="9" value="Subnet-A (10.0.1.0/24)" style="text;html=1;strokeColor=none;fillColor=none;align=center;verticalAlign=middle;whiteSpace=wrap;rounded=0;" parent="1" vertex="1">
                    <mxGeometry x="190" y="430" width="150" height="10" as="geometry"/>
                </mxCell>
                <mxCell id="10" value="" style="aspect=fixed;html=1;points=[];align=center;image;fontSize=12;image=img/lib/azure2/compute/Virtual_Machines_Classic.svg;" parent="1" vertex="1">
                    <mxGeometry x="230.5" y="730" width="89.5" height="83.01" as="geometry"/>
                </mxCell>
                <mxCell id="11" value="" style="aspect=fixed;html=1;points=[];align=center;image;fontSize=12;image=img/lib/azure2/compute/Virtual_Machines_Classic.svg;" parent="1" vertex="1">
                    <mxGeometry x="510" y="730" width="89" height="82.55" as="geometry"/>
                </mxCell>
                <mxCell id="13" value="" style="verticalLabelPosition=bottom;verticalAlign=top;html=1;shape=mxgraph.basic.rect;fillColor2=none;strokeWidth=1;size=20;indent=5;" parent="1" vertex="1">
                    <mxGeometry x="210" y="670" width="130" height="60" as="geometry"/>
                </mxCell>
                <mxCell id="14" value="&lt;br&gt;Network-card&lt;br&gt;Public-IP- 109.8.9.67&lt;br&gt;Private-IP&amp;nbsp; 10.0.1.1" style="text;html=1;strokeColor=none;fillColor=none;align=center;verticalAlign=middle;whiteSpace=wrap;rounded=0;" parent="1" vertex="1">
                    <mxGeometry x="195" y="653.21" width="170" height="70" as="geometry"/>
                </mxCell>
                <mxCell id="15" value="" style="verticalLabelPosition=bottom;verticalAlign=top;html=1;shape=mxgraph.basic.rect;fillColor2=none;strokeWidth=1;size=20;indent=5;" parent="1" vertex="1">
                    <mxGeometry x="510" y="670" width="90" height="60" as="geometry"/>
                </mxCell>
                <mxCell id="16" value="Network-card&lt;br&gt;Private-IP&lt;br&gt;10.0.1.2" style="text;html=1;strokeColor=none;fillColor=none;align=center;verticalAlign=middle;whiteSpace=wrap;rounded=0;" parent="1" vertex="1">
                    <mxGeometry x="517.25" y="670" width="74.5" height="60" as="geometry"/>
                </mxCell>
                <mxCell id="17" value="" style="aspect=fixed;html=1;points=[];align=center;image;fontSize=12;image=img/lib/azure2/compute/Virtual_Machines_Classic.svg;" parent="1" vertex="1">
                    <mxGeometry x="760" y="730" width="86.25" height="80" as="geometry"/>
                </mxCell>
                <mxCell id="18" value="" style="verticalLabelPosition=bottom;verticalAlign=top;html=1;shape=mxgraph.basic.rect;fillColor2=none;strokeWidth=1;size=20;indent=5;" parent="1" vertex="1">
                    <mxGeometry x="760" y="680" width="90" height="50" as="geometry"/>
                </mxCell>
                <mxCell id="19" value="Network-card&lt;br&gt;Private-IP&lt;br&gt;10.0.2.1" style="text;html=1;strokeColor=none;fillColor=none;align=center;verticalAlign=middle;whiteSpace=wrap;rounded=0;" parent="1" vertex="1">
                    <mxGeometry x="753.13" y="680" width="100" height="50" as="geometry"/>
                </mxCell>
                <mxCell id="21" value="" style="aspect=fixed;html=1;points=[];align=center;image;fontSize=12;image=img/lib/azure2/networking/Virtual_Networks_Classic.svg;" parent="1" vertex="1">
                    <mxGeometry x="150" y="154.93" width="57" height="34.03" as="geometry"/>
                </mxCell>
                <mxCell id="22" value="&lt;font style=&quot;font-size: 14px&quot;&gt;Virtual-Network&amp;nbsp; 10.0.0.0/16&lt;/font&gt;" style="text;html=1;align=center;verticalAlign=middle;resizable=0;points=[];autosize=1;strokeColor=none;fillColor=none;" parent="1" vertex="1">
                    <mxGeometry x="211.15" y="163.96" width="190" height="20" as="geometry"/>
                </mxCell>
                <mxCell id="24" value="" style="endArrow=classic;html=1;fontSize=14;" parent="1" edge="1">
                    <mxGeometry width="50" height="50" relative="1" as="geometry">
                        <mxPoint x="629" y="170" as="sourcePoint"/>
                        <mxPoint x="629" y="230" as="targetPoint"/>
                    </mxGeometry>
                </mxCell>
                <mxCell id="26" value="" style="endArrow=classic;html=1;fontSize=14;exitX=0.333;exitY=2;exitDx=0;exitDy=0;exitPerimeter=0;" parent="1" source="9" edge="1">
                    <mxGeometry width="50" height="50" relative="1" as="geometry">
                        <mxPoint x="265" y="450" as="sourcePoint"/>
                        <mxPoint x="240" y="660" as="targetPoint"/>
                    </mxGeometry>
                </mxCell>
                <mxCell id="27" value="" style="aspect=fixed;html=1;points=[];align=center;image;fontSize=12;image=img/lib/azure2/networking/Network_Security_Groups.svg;" parent="1" vertex="1">
                    <mxGeometry x="251.15" y="636.36" width="27.7" height="33.64" as="geometry"/>
                </mxCell>
                <mxCell id="28" value="" style="aspect=fixed;html=1;points=[];align=center;image;fontSize=12;image=img/lib/azure2/networking/Network_Security_Groups.svg;" parent="1" vertex="1">
                    <mxGeometry x="510" y="641.5699999999999" width="26" height="31.57" as="geometry"/>
                </mxCell>
                <mxCell id="37" value="" style="endArrow=classic;html=1;entryX=0.171;entryY=0.667;entryDx=0;entryDy=0;entryPerimeter=0;" parent="1" target="16" edge="1">
                    <mxGeometry width="50" height="50" relative="1" as="geometry">
                        <mxPoint x="340" y="710" as="sourcePoint"/>
                        <mxPoint x="850" y="460" as="targetPoint"/>
                    </mxGeometry>
                </mxCell>
                <mxCell id="39" value="1) NSG can be atached to &quot;Network-interface&quot; or to &quot;Subnet&quot; itself,&lt;br&gt;As in the &quot;Public-Subnet&quot; we have attached to as &quot;Subnet-level&quot;&lt;br&gt;In &quot;Private-Subnet&quot; we have attached at the &quot;Network-interface&quot; level" style="text;html=1;strokeColor=none;fillColor=none;align=center;verticalAlign=middle;whiteSpace=wrap;rounded=0;" parent="1" vertex="1">
                    <mxGeometry x="-74.1" y="-100" width="424.1" height="30" as="geometry"/>
                </mxCell>
                <mxCell id="40" value="" style="aspect=fixed;html=1;points=[];align=center;image;fontSize=12;image=img/lib/azure2/networking/Network_Security_Groups.svg;" parent="1" vertex="1">
                    <mxGeometry x="195" y="388.43" width="26" height="31.57" as="geometry"/>
                </mxCell>
                <mxCell id="41" value="" style="aspect=fixed;html=1;points=[];align=center;image;fontSize=12;image=img/lib/azure2/networking/Network_Security_Groups.svg;" parent="1" vertex="1">
                    <mxGeometry x="730" y="670" width="30" height="36.43" as="geometry"/>
                </mxCell>
                <mxCell id="42" value="( Private-Subnet )" style="text;html=1;strokeColor=none;fillColor=none;align=center;verticalAlign=middle;whiteSpace=wrap;rounded=0;" parent="1" vertex="1">
                    <mxGeometry x="860" y="420" width="110" height="30" as="geometry"/>
                </mxCell>
                <mxCell id="44" value="" style="verticalLabelPosition=bottom;verticalAlign=top;html=1;shape=mxgraph.basic.rect;fillColor2=none;strokeWidth=1;size=20;indent=5;" parent="1" vertex="1">
                    <mxGeometry x="1390" y="188.96" width="540" height="880" as="geometry"/>
                </mxCell>
                <mxCell id="45" value="" style="verticalLabelPosition=bottom;verticalAlign=top;html=1;shape=mxgraph.basic.rect;fillColor2=none;strokeWidth=1;size=20;indent=5;" parent="1" vertex="1">
                    <mxGeometry x="1420" y="420" width="470" height="450" as="geometry"/>
                </mxCell>
                <mxCell id="46" value="" style="aspect=fixed;html=1;points=[];align=center;image;fontSize=12;image=img/lib/azure2/compute/Virtual_Machines_Classic.svg;" parent="1" vertex="1">
                    <mxGeometry x="1530" y="761" width="69" height="64" as="geometry"/>
                </mxCell>
                <mxCell id="47" value="" style="verticalLabelPosition=bottom;verticalAlign=top;html=1;shape=mxgraph.basic.rect;fillColor2=none;strokeWidth=1;size=20;indent=5;" parent="1" vertex="1">
                    <mxGeometry x="1522.75" y="710" width="117.25" height="51" as="geometry"/>
                </mxCell>
                <mxCell id="48" value="Network-card&lt;br&gt;Private-IP 10.1.0.5" style="text;html=1;strokeColor=none;fillColor=none;align=center;verticalAlign=middle;whiteSpace=wrap;rounded=0;" parent="1" vertex="1">
                    <mxGeometry x="1510" y="713.45" width="144.12" height="47.55" as="geometry"/>
                </mxCell>
                <mxCell id="49" value="" style="aspect=fixed;html=1;points=[];align=center;image;fontSize=12;image=img/lib/azure2/networking/Virtual_Networks.svg;" parent="1" vertex="1">
                    <mxGeometry x="1400" y="154.93" width="47" height="28.06" as="geometry"/>
                </mxCell>
                <mxCell id="50" value="Virtual-Network 10.1.0.0/16" style="text;html=1;strokeColor=none;fillColor=none;align=center;verticalAlign=middle;whiteSpace=wrap;rounded=0;" parent="1" vertex="1">
                    <mxGeometry x="1447" y="153.96" width="163" height="30" as="geometry"/>
                </mxCell>
                <mxCell id="51" value="Subnet-A (10.1.0.0/24) Private Subnet" style="text;html=1;strokeColor=none;fillColor=none;align=center;verticalAlign=middle;whiteSpace=wrap;rounded=0;" parent="1" vertex="1">
                    <mxGeometry x="1420" y="420" width="210" height="30" as="geometry"/>
                </mxCell>
                <mxCell id="52" value="" style="shape=process;whiteSpace=wrap;html=1;backgroundOutline=1;" parent="1" vertex="1">
                    <mxGeometry x="1140" y="990" width="290" height="60" as="geometry"/>
                </mxCell>
                <mxCell id="53" value="&lt;font style=&quot;font-size: 18px&quot;&gt;Peering Connection&lt;/font&gt;" style="text;html=1;strokeColor=none;fillColor=none;align=center;verticalAlign=middle;whiteSpace=wrap;rounded=0;" parent="1" vertex="1">
                    <mxGeometry x="1200.25" y="1020" width="169.5" height="30" as="geometry"/>
                </mxCell>
                <mxCell id="56" value="" style="endArrow=classic;html=1;fontSize=14;exitX=0.18;exitY=0.87;exitDx=0;exitDy=0;exitPerimeter=0;" parent="1" source="7" edge="1">
                    <mxGeometry width="50" height="50" relative="1" as="geometry">
                        <mxPoint x="940" y="640" as="sourcePoint"/>
                        <mxPoint x="270" y="1010" as="targetPoint"/>
                    </mxGeometry>
                </mxCell>
                <mxCell id="57" value="" style="endArrow=classic;html=1;fontSize=14;exitX=0.108;exitY=0.936;exitDx=0;exitDy=0;exitPerimeter=0;entryX=0.185;entryY=0.937;entryDx=0;entryDy=0;entryPerimeter=0;" parent="1" source="4" target="44" edge="1">
                    <mxGeometry width="50" height="50" relative="1" as="geometry">
                        <mxPoint x="270" y="880" as="sourcePoint"/>
                        <mxPoint x="990" y="590" as="targetPoint"/>
                    </mxGeometry>
                </mxCell>
                <mxCell id="58" value="" style="endArrow=classic;html=1;fontSize=14;" parent="1" edge="1">
                    <mxGeometry width="50" height="50" relative="1" as="geometry">
                        <mxPoint x="1485" y="1010" as="sourcePoint"/>
                        <mxPoint x="1485" y="750" as="targetPoint"/>
                    </mxGeometry>
                </mxCell>
                <mxCell id="61" value="" style="endArrow=classic;html=1;fontSize=14;exitX=0.149;exitY=0.733;exitDx=0;exitDy=0;exitPerimeter=0;entryX=0.206;entryY=0.77;entryDx=0;entryDy=0;entryPerimeter=0;" parent="1" source="45" target="48" edge="1">
                    <mxGeometry width="50" height="50" relative="1" as="geometry">
                        <mxPoint x="940" y="640" as="sourcePoint"/>
                        <mxPoint x="990" y="590" as="targetPoint"/>
                    </mxGeometry>
                </mxCell>
                <mxCell id="62" value="" style="endArrow=classic;html=1;fontSize=14;exitX=1;exitY=0.75;exitDx=0;exitDy=0;entryX=0.169;entryY=0.7;entryDx=0;entryDy=0;entryPerimeter=0;" parent="1" source="16" target="19" edge="1">
                    <mxGeometry width="50" height="50" relative="1" as="geometry">
                        <mxPoint x="940" y="640" as="sourcePoint"/>
                        <mxPoint x="990" y="590" as="targetPoint"/>
                    </mxGeometry>
                </mxCell>
                <mxCell id="63" value="User" style="ellipse;whiteSpace=wrap;html=1;fontSize=14;" parent="1" vertex="1">
                    <mxGeometry x="600" y="-10" width="90" height="30" as="geometry"/>
                </mxCell>
                <mxCell id="64" value="" style="endArrow=classic;html=1;fontSize=14;exitX=0.5;exitY=1;exitDx=0;exitDy=0;entryX=0.554;entryY=-0.025;entryDx=0;entryDy=0;entryPerimeter=0;" parent="1" source="63" target="67" edge="1">
                    <mxGeometry width="50" height="50" relative="1" as="geometry">
                        <mxPoint x="940" y="410" as="sourcePoint"/>
                        <mxPoint x="554" y="140" as="targetPoint"/>
                    </mxGeometry>
                </mxCell>
                <mxCell id="65" value="" style="verticalLabelPosition=bottom;verticalAlign=top;html=1;shape=mxgraph.basic.rect;fillColor2=none;strokeWidth=1;size=20;indent=5;fontSize=14;" parent="1" vertex="1">
                    <mxGeometry x="536" y="130" width="204" height="50" as="geometry"/>
                </mxCell>
                <mxCell id="67" value="Virtual Network Gateway&lt;br&gt;Public-IP 188.11.22.33" style="text;html=1;strokeColor=none;fillColor=none;align=center;verticalAlign=middle;whiteSpace=wrap;rounded=0;fontSize=14;" parent="1" vertex="1">
                    <mxGeometry x="540" y="130" width="190" height="40" as="geometry"/>
                </mxCell>
                <mxCell id="69" value="" style="verticalLabelPosition=bottom;verticalAlign=top;html=1;shape=mxgraph.basic.rect;fillColor2=none;strokeWidth=1;size=20;indent=5;fontSize=14;" parent="1" vertex="1">
                    <mxGeometry x="560" y="230" width="120" height="30" as="geometry"/>
                </mxCell>
                <mxCell id="70" value="Gateway-Subnet" style="text;html=1;strokeColor=none;fillColor=none;align=center;verticalAlign=middle;whiteSpace=wrap;rounded=0;fontSize=14;" parent="1" vertex="1">
                    <mxGeometry x="560" y="230" width="120" height="30" as="geometry"/>
                </mxCell>
                <mxCell id="71" value="" style="endArrow=classic;html=1;fontSize=14;exitX=0.5;exitY=1;exitDx=0;exitDy=0;" parent="1" source="70" target="40" edge="1">
                    <mxGeometry width="50" height="50" relative="1" as="geometry">
                        <mxPoint x="940" y="370" as="sourcePoint"/>
                        <mxPoint x="990" y="320" as="targetPoint"/>
                    </mxGeometry>
                </mxCell>
                <mxCell id="72" value="" style="aspect=fixed;html=1;points=[];align=center;image;fontSize=12;image=img/lib/azure2/networking/Network_Security_Groups.svg;" parent="1" vertex="1">
                    <mxGeometry x="1490" y="713.4499999999999" width="25.87" height="31.42" as="geometry"/>
                </mxCell>
                <mxCell id="73" value="" style="shape=cylinder3;whiteSpace=wrap;html=1;boundedLbl=1;backgroundOutline=1;size=15;fontSize=14;" parent="1" vertex="1">
                    <mxGeometry x="557.5" y="1155" width="60" height="80" as="geometry"/>
                </mxCell>
                <mxCell id="74" value="Azure SQL Database" style="text;html=1;strokeColor=none;fillColor=none;align=center;verticalAlign=middle;whiteSpace=wrap;rounded=0;fontSize=14;" parent="1" vertex="1">
                    <mxGeometry x="620" y="1180" width="80" height="30" as="geometry"/>
                </mxCell>
                <mxCell id="76" value="" style="verticalLabelPosition=bottom;verticalAlign=top;html=1;shape=mxgraph.basic.rect;fillColor2=none;strokeWidth=1;size=20;indent=5;fontSize=14;" parent="1" vertex="1">
                    <mxGeometry x="495" y="860" width="120" height="40" as="geometry"/>
                </mxCell>
                <mxCell id="77" value="Service Endpoint" style="text;html=1;strokeColor=none;fillColor=none;align=center;verticalAlign=middle;whiteSpace=wrap;rounded=0;fontSize=14;" parent="1" vertex="1">
                    <mxGeometry x="492.5" y="865" width="125" height="30" as="geometry"/>
                </mxCell>
                <mxCell id="78" value="" style="shape=flexArrow;endArrow=classic;startArrow=classic;html=1;fontSize=14;exitX=0.5;exitY=0;exitDx=0;exitDy=0;exitPerimeter=0;entryX=0.601;entryY=1.021;entryDx=0;entryDy=0;entryPerimeter=0;" parent="1" source="73" target="76" edge="1">
                    <mxGeometry width="100" height="100" relative="1" as="geometry">
                        <mxPoint x="473" y="1000" as="sourcePoint"/>
                        <mxPoint x="573" y="900" as="targetPoint"/>
                    </mxGeometry>
                </mxCell>
                <mxCell id="80" value="" style="endArrow=classic;startArrow=classic;html=1;fontSize=14;exitX=0.458;exitY=0;exitDx=0;exitDy=0;exitPerimeter=0;" parent="1" source="76" edge="1">
                    <mxGeometry width="50" height="50" relative="1" as="geometry">
                        <mxPoint x="550" y="850" as="sourcePoint"/>
                        <mxPoint x="550" y="810" as="targetPoint"/>
                    </mxGeometry>
                </mxCell>
                <mxCell id="82" value="&lt;font style=&quot;font-size: 18px&quot;&gt;Azure-backbone secure connection&lt;/font&gt;" style="text;html=1;strokeColor=none;fillColor=none;align=center;verticalAlign=middle;whiteSpace=wrap;rounded=0;fontSize=14;" parent="1" vertex="1">
                    <mxGeometry x="575" y="950" width="165" height="30" as="geometry"/>
                </mxCell>
                <mxCell id="85" value="" style="shape=cylinder3;whiteSpace=wrap;html=1;boundedLbl=1;backgroundOutline=1;size=15;fontSize=18;" parent="1" vertex="1">
                    <mxGeometry x="420" y="1155" width="60" height="80" as="geometry"/>
                </mxCell>
                <mxCell id="86" value="" style="shape=flexArrow;endArrow=classic;startArrow=classic;html=1;fontSize=18;entryX=0.36;entryY=1.083;entryDx=0;entryDy=0;entryPerimeter=0;" parent="1" target="77" edge="1">
                    <mxGeometry width="100" height="100" relative="1" as="geometry">
                        <mxPoint x="460" y="1150" as="sourcePoint"/>
                        <mxPoint x="540" y="910" as="targetPoint"/>
                    </mxGeometry>
                </mxCell>
                <mxCell id="87" value="Azure&amp;nbsp;&lt;br&gt;Storage" style="text;html=1;strokeColor=none;fillColor=none;align=center;verticalAlign=middle;whiteSpace=wrap;rounded=0;fontSize=18;" parent="1" vertex="1">
                    <mxGeometry x="320" y="1180" width="60" height="30" as="geometry"/>
                </mxCell>
            </root>
        </mxGraphModel>
    </diagram>
</mxfile>